# xmcd
#
# Track frame offsets: 
#        150
#        21163
#        43526
#        64100
#        84860
#        102245
#        131155
#        149502
#        164694
#        181918
#        197884
#        218895
#        242857
#        261583
#        287493
#        312878
#        332497
#
# Disc length: 4778 seconds
#
# Revision: 0
# Processed by: cddbd v1.5.2PL0 Copyright (c) Steve Scherf et al.
# Submitted via: ExactAudioCopy v1.3
#
DISCID=0112a811
DTITLE=Various Artist - Akella Presents - vol. 148 - Black Pure Blues
DTITLE=CD1
DYEAR=2018
DGENRE=Blues
TTITLE0=Walter Wolfman Washington - At Night in the City
TTITLE1=Kenny Blues Boss Wayne - Heaven Send Me An Angel
TTITLE2=Buddy Guy - 74 Years Young
TTITLE3=Chick Willis - I Cain't Work and Watch You
TTITLE4=Drink Small - D.U.I.
TTITLE5=Robert Ealey - Part Time Love
TTITLE6=Frank Frost - Sweet Woman
TTITLE7=Bob Kirkpatrick - I Don't Know Why
TTITLE8=Chris Cane - Meanest Woman In Town
TTITLE9=Alabama Mike - Day To Day
TTITLE10=The Crudup Brothers - That's Alright Mama
TTITLE11=Lazy Lester - The Sun Is Shining
TTITLE12=Michael Coleman - You're Going To Miss Me
TTITLE13=Mel Brown - Woman Wanted
TTITLE14=Big Jack Johnson - Hummin' Blues
TTITLE15=Little Arthur Duncan - Knockin' On Your Door
TTITLE16=Big Al Carson - Because I Got High
EXTD=
EXTT0=
EXTT1=
EXTT2=
EXTT3=
EXTT4=
EXTT5=
EXTT6=
EXTT7=
EXTT8=
EXTT9=
EXTT10=
EXTT11=
EXTT12=
EXTT13=
EXTT14=
EXTT15=
EXTT16=
PLAYORDER=
